<?xml version="1.0" encoding="UTF-8" standalone="no"?>
<!DOCTYPE svg PUBLIC "-//W3C//DTD SVG 20010904//EN" "http://www.w3.org/TR/2001/REC-SVG-20010904/DTD/svg10.dtd">
<svg version="1.0" xmlns="http://www.w3.org/2000/svg" width="363.000000pt" height="137.000000pt" viewBox="0 0 363.000000 137.000000" preserveAspectRatio="xMidYMid meet">

<g transform="translate(0.000000,137.000000) scale(0.100000,-0.100000)" stroke="none" fill="#c3935b">
<path d="M656 1113 c-3 -131 -9 -287 -13 -347 l-6 -108 -186 7 c-102 4 -188 9 -190 11 -10 9 32 390 55 507 15 71 24 131 20 134 -38 38 -91 -223 -112 -550 l-7 -104 -58 -17 c-68 -21 -139 -70 -139 -97 0 -26 15 -24 58 10 20 16 57 36 82 44 l45 15 3 -104 c2 -96 4 -104 22 -104 18 0 20 7 20 88 0 48 3 98 7 111 l6 23 181 -7 c100 -4 184 -10 187 -14 6 -6 -10 -247 -26 -409 -7 -67 -6 -72 13 -72 23 0 26 16 42 245 6 83 13 169 16 191 l5 41 107 7 c59 4 116 10 128 12 19 5 21 1 20 -39 -1 -52 16 -77 54 -77 30 0 73 41 85 81 7 21 7 21 33 -4 41 -37 70 -49 121 -49 56 1 91 13 136 48 l34 25 7 -35 c9 -52 35 -47 63 12 26 53 17 57 81 -35 47 -67 109 -70 200 -8 49 33 50 33 50 11 0 -53 74 -74 124 -35 l27 21 22 -20 c63 -59 148 -54 247 14 l51 35 10 -31 c31 -88 159 -78 328 24 65 40 80 39 81 -6 0 -35 36 -20 55 22 10 23 22 43 26 46 5 2 24 -20 43 -50 19 -30 44 -60 55 -65 46 -25 126 -1 193 58 43 37 48 38 48 8 0 -29 29 -57 59 -57 12 0 33 12 46 26 l25 27 0 -48 c0 -43 -5 -54 -54 -111 -101 -118 -164 -252 -149 -316 18 -72 100 -93 147 -37 48 56 69 129 89 299 l12 105 80 57 c47 34 111 68 155 84 87 32 99 39 82 56 -26 26 -219 -61 -299 -134 l-21 -20 -7 96 c-6 81 -10 96 -25 96 -11 0 -21 -14 -30 -42 -18 -63 -38 -98 -56 -98 -13 0 -15 10 -12 57 4 81 -15 81 -97 4 -64 -60 -127 -90 -159 -78 -9 4 -32 31 -51 61 -44 68 -67 77 -106 40 l-28 -27 2 26 c1 14 -1 26 -5 26 -45 4 -60 -1 -65 -19 -11 -40 -189 -130 -257 -130 -64 0 -65 15 -8 68 40 37 52 55 52 78 0 36 -16 54 -48 54 -18 0 -51 -25 -111 -83 -97 -93 -155 -124 -215 -113 -20 4 -44 18 -54 31 -20 25 -20 25 19 126 56 149 108 331 120 429 10 73 9 90 -4 123 -13 31 -21 37 -46 37 -35 0 -60 -34 -92 -126 -43 -124 -61 -234 -65 -399 -4 -146 -6 -161 -26 -182 -28 -30 -68 -31 -68 -3 0 35 28 78 52 82 13 2 23 10 23 18 0 11 -11 15 -40 15 -35 0 -48 -7 -102 -57 -62 -57 -126 -87 -157 -75 -9 4 -32 31 -51 61 -43 68 -67 77 -105 41 l-27 -26 -7 25 c-9 36 -53 36 -66 1 -12 -33 -79 -65 -134 -65 -36 0 -52 6 -80 30 -18 17 -37 41 -40 55 -7 29 -34 33 -42 8 -34 -109 -89 -165 -82 -85 2 31 8 39 36 51 30 14 41 34 24 45 -4 2 -41 -1 -82 -9 -42 -7 -121 -16 -177 -20 l-103 -7 8 188 c4 104 7 261 7 349 0 138 -2 160 -16 163 -14 3 -17 -25 -23 -235z m1449 88 c13 -58 -49 -322 -114 -486 l-20 -50 -1 81 c0 130 49 365 96 457 19 35 31 34 39 -2z m285 -535 c0 -15 -59 -70 -67 -62 -11 11 39 76 58 76 5 0 9 -6 9 -14z m839 -333 c-10 -92 -26 -158 -49 -202 -24 -48 -43 -63 -72 -59 -37 5 -37 73 1 153 29 62 107 175 120 175 4 0 4 -30 0 -67z"/>
</g>
</svg>