<?xml version="1.0" standalone="no"?>
<!DOCTYPE svg PUBLIC "-//W3C//DTD SVG 20010904//EN"
 "http://www.w3.org/TR/2001/REC-SVG-20010904/DTD/svg10.dtd">
<svg version="1.0" xmlns="http://www.w3.org/2000/svg"
 width="111.000000pt" height="106.000000pt" viewBox="0 0 111.000000 106.000000"
 preserveAspectRatio="xMidYMid meet">

<g transform="translate(0.000000,106.000000) scale(0.100000,-0.100000)"
fill="#777" stroke="none">
<path d="M42 1021 c-8 -4 -12 -19 -10 -32 3 -22 9 -24 59 -27 l55 -3 63 -347
62 -347 -20 -40 c-26 -50 -26 -91 -1 -133 43 -70 136 -78 197 -17 29 29 33 39
33 89 l0 56 120 0 120 0 -6 -42 c-15 -118 115 -188 206 -112 43 37 57 94 33
141 -10 20 -31 46 -46 57 -27 20 -44 21 -297 24 l-269 3 -10 50 c-6 27 -11 52
-11 54 0 3 124 5 276 5 293 0 323 4 351 49 16 26 77 356 69 376 -5 13 -57 15
-390 15 l-385 0 -11 58 c-16 82 -28 108 -56 121 -29 13 -113 14 -132 2z m898
-263 c0 -44 -45 -256 -58 -271 -14 -16 -38 -17 -296 -15 l-281 3 -7 45 c-4 25
-16 91 -27 148 l-18 102 343 0 c261 0 344 -3 344 -12z m-73 -553 c32 -22 35
-52 8 -83 -20 -23 -26 -25 -51 -17 -18 6 -33 21 -39 39 -8 25 -6 31 18 52 33
28 36 29 64 9z m-469 -7 c19 -19 14 -63 -8 -83 -46 -41 -116 29 -75 75 20 22
64 27 83 8z"/>
</g>
</svg>
