<?xml version="1.0" standalone="no"?>
<!DOCTYPE svg PUBLIC "-//W3C//DTD SVG 20010904//EN"
 "http://www.w3.org/TR/2001/REC-SVG-20010904/DTD/svg10.dtd">
<svg version="1.0" xmlns="http://www.w3.org/2000/svg"
 width="104.000000pt" height="105.000000pt" viewBox="0 0 104.000000 105.000000"
 preserveAspectRatio="xMidYMid meet">

<g transform="translate(0.000000,105.000000) scale(0.100000,-0.100000)"
fill="#ffffff" stroke="none">
<path d="M363 1016 c-126 -31 -243 -125 -296 -238 -140 -296 71 -628 399 -628
173 0 316 91 393 250 35 73 36 78 36 190 0 111 -1 118 -34 185 -62 127 -182
219 -320 245 -68 13 -112 12 -178 -4z m224 -108 c78 -29 152 -100 189 -181 40
-87 41 -197 3 -277 -39 -82 -90 -135 -167 -172 -60 -30 -75 -33 -152 -33 -105
1 -157 22 -234 95 -69 65 -98 129 -104 233 -5 92 11 145 69 224 39 52 98 94
167 119 58 21 163 17 229 -8z"/>
<path d="M845 200 l-29 -31 67 -67 67 -67 32 33 33 32 -65 65 c-35 36 -67 65
-70 65 -4 0 -19 -14 -35 -30z"/>
</g>
</svg>
